<mxfile host="65bd71144e">
    <diagram id="3owO6AGz4lcZhDaqJUSl" name="Page-1">
        <mxGraphModel dx="965" dy="562" grid="1" gridSize="10" guides="1" tooltips="1" connect="1" arrows="1" fold="1" page="1" pageScale="1" pageWidth="850" pageHeight="1100" math="0" shadow="0">
            <root>
                <mxCell id="0"/>
                <mxCell id="1" parent="0"/>
                <mxCell id="2" value="User&lt;br&gt;" style="shape=umlActor;verticalLabelPosition=bottom;verticalAlign=top;html=1;" vertex="1" parent="1">
                    <mxGeometry x="100" y="118" width="40" height="80" as="geometry"/>
                </mxCell>
                <mxCell id="3" value="system" style="ellipse;shape=umlEntity;whiteSpace=wrap;html=1;" vertex="1" parent="1">
                    <mxGeometry x="590" y="120" width="80" height="80" as="geometry"/>
                </mxCell>
                <mxCell id="4" value="UserCase Senairo for solving Quiz" style="html=1;" vertex="1" parent="1">
                    <mxGeometry x="210" y="40" width="340" height="50" as="geometry"/>
                </mxCell>
                <mxCell id="7" value="&lt;font style=&quot;font-size: 15px&quot;&gt;&lt;b&gt;User Start Quiz&lt;/b&gt;&lt;/font&gt;" style="html=1;verticalAlign=bottom;startArrow=circle;startFill=1;endArrow=open;startSize=6;endSize=8;" edge="1" parent="1">
                    <mxGeometry width="80" relative="1" as="geometry">
                        <mxPoint x="130" y="260" as="sourcePoint"/>
                        <mxPoint x="610" y="260" as="targetPoint"/>
                    </mxGeometry>
                </mxCell>
                <mxCell id="8" value="&lt;span style=&quot;font-size: 15px&quot;&gt;&lt;b&gt;Response with ALL Question&lt;/b&gt;&lt;/span&gt;" style="html=1;verticalAlign=bottom;startArrow=circle;startFill=1;endArrow=open;startSize=6;endSize=8;" edge="1" parent="1">
                    <mxGeometry width="80" relative="1" as="geometry">
                        <mxPoint x="610" y="320" as="sourcePoint"/>
                        <mxPoint x="120" y="360" as="targetPoint"/>
                    </mxGeometry>
                </mxCell>
                <mxCell id="9" value="&lt;span style=&quot;font-size: 15px&quot;&gt;&lt;b&gt;Response 200 to show next Question&lt;/b&gt;&lt;/span&gt;" style="html=1;verticalAlign=bottom;startArrow=circle;startFill=1;endArrow=open;startSize=6;endSize=8;" edge="1" parent="1">
                    <mxGeometry width="80" relative="1" as="geometry">
                        <mxPoint x="610" y="590" as="sourcePoint"/>
                        <mxPoint x="120" y="630" as="targetPoint"/>
                    </mxGeometry>
                </mxCell>
                <mxCell id="11" value="&lt;span style=&quot;font-size: 15px&quot;&gt;&lt;b&gt;POST Question answer&lt;/b&gt;&lt;/span&gt;" style="html=1;verticalAlign=bottom;startArrow=circle;startFill=1;endArrow=open;startSize=6;endSize=8;" edge="1" parent="1">
                    <mxGeometry width="80" relative="1" as="geometry">
                        <mxPoint x="120" y="420" as="sourcePoint"/>
                        <mxPoint x="600" y="460" as="targetPoint"/>
                    </mxGeometry>
                </mxCell>
                <mxCell id="12" value="&lt;font style=&quot;font-size: 14px&quot;&gt;check if answer == correct answer&lt;br&gt;created answer record&lt;br&gt;create point record&lt;br&gt;update user point&lt;br&gt;&lt;/font&gt;" style="html=1;" vertex="1" parent="1">
                    <mxGeometry x="540" y="480" width="270" height="100" as="geometry"/>
                </mxCell>
                <mxCell id="16" value="&lt;span style=&quot;font-size: 15px&quot;&gt;&lt;b&gt;POST Last Question answer&lt;/b&gt;&lt;/span&gt;" style="html=1;verticalAlign=bottom;startArrow=circle;startFill=1;endArrow=open;startSize=6;endSize=8;" edge="1" parent="1">
                    <mxGeometry width="80" relative="1" as="geometry">
                        <mxPoint x="120" y="690" as="sourcePoint"/>
                        <mxPoint x="600" y="730" as="targetPoint"/>
                    </mxGeometry>
                </mxCell>
                <mxCell id="17" value="&lt;font style=&quot;font-size: 14px&quot;&gt;check if answer == correct answer&lt;br&gt;created answer record&lt;br&gt;create point record&lt;br&gt;update user point&lt;br&gt;send&amp;nbsp; total point&lt;/font&gt;" style="html=1;" vertex="1" parent="1">
                    <mxGeometry x="540" y="750" width="270" height="100" as="geometry"/>
                </mxCell>
            </root>
        </mxGraphModel>
    </diagram>
    <diagram id="e4sdiqV-C7lWoJnz-Cj2" name="Page-2">
        <mxGraphModel dx="965" dy="562" grid="1" gridSize="10" guides="1" tooltips="1" connect="1" arrows="1" fold="1" page="1" pageScale="1" pageWidth="850" pageHeight="1100" math="0" shadow="0">
            <root>
                <mxCell id="GgrBoWbw2fnv2UQsiRl0-0"/>
                <mxCell id="GgrBoWbw2fnv2UQsiRl0-1" parent="GgrBoWbw2fnv2UQsiRl0-0"/>
            </root>
        </mxGraphModel>
    </diagram>
</mxfile>